<svg width="25" height="25" viewBox="0 0 25 25" fill="none" xmlns="http://www.w3.org/2000/svg">
<g clip-path="url(#clip0)">
<path d="M14.8742 1.46118C15.156 1.3432 15.4836 1.4095 15.7011 1.62498L24.7777 8.75544C25.0741 9.0499 25.0741 9.53255 24.7777 9.82799L15.7011 16.9243C15.5567 17.0706 15.3617 17.1476 15.1658 17.1476C15.0663 17.1476 14.9678 17.1271 14.8742 17.0901C14.5905 16.9721 14.4208 16.6962 14.4208 16.389V12.1388C4.71431 12.1388 0.468992 14.8767 1.11544 23.5965C-2.9963 9.64565 4.89567 6.49238 14.4208 6.49238V2.16125C14.4218 1.85412 14.5905 1.57818 14.8742 1.46118Z" fill="#030104"/>
</g>
<defs>
<clipPath id="clip0">
<rect width="25" height="25" fill="white"/>
</clipPath>
</defs>
</svg>
