<svg width="25" height="25" viewBox="0 0 25 25" fill="none" xmlns="http://www.w3.org/2000/svg">
<g clip-path="url(#clip0)">
<path d="M10.1258 1.46118C9.84399 1.3432 9.51638 1.4095 9.29895 1.62498L0.222309 8.75544C-0.074103 9.0499 -0.074103 9.53255 0.222309 9.82799L9.29895 16.9243C9.44325 17.0706 9.63826 17.1476 9.83424 17.1476C9.9337 17.1476 10.0322 17.1271 10.1258 17.0901C10.4095 16.9721 10.5792 16.6962 10.5792 16.389V12.1388C20.2857 12.1388 24.531 14.8767 23.8846 23.5965C27.9963 9.64565 20.1043 6.49238 10.5792 6.49238V2.16125C10.5782 1.85412 10.4095 1.57818 10.1258 1.46118Z" fill="#030104"/>
</g>
<defs>
<clipPath id="clip0">
<rect width="25" height="25" fill="white" transform="matrix(-1 0 0 1 25 0)"/>
</clipPath>
</defs>
</svg>
